<?xml version="1.0" encoding="utf-8"?>
<!-- Generator: Adobe Illustrator 14.0.0, SVG Export Plug-In . SVG Version: 6.00 Build 43363)  -->
<!DOCTYPE svg PUBLIC "-//W3C//DTD SVG 1.1//EN" "http://www.w3.org/Graphics/SVG/1.1/DTD/svg11.dtd">
<svg version="1.1" id="Layer_1" xmlns="http://www.w3.org/2000/svg" xmlns:xlink="http://www.w3.org/1999/xlink" x="0px" y="0px"
	 width="70.253px" height="70px" viewBox="0 0 70.253 70" enable-background="new 0 0 70.253 70" xml:space="preserve">
<g>
	<line fill="#FFFFFF" x1="9.489" y1="60.965" x2="60.784" y2="9.51"/>
	<g>
		<path fill="#FFFFFF" d="M11.61,63.086c17.099-17.151,34.197-34.303,51.295-51.455c2.734-2.742-1.508-6.985-4.242-4.242
			C41.564,24.54,24.466,41.692,7.368,58.844C4.634,61.586,8.876,65.829,11.61,63.086L11.61,63.086z"/>
	</g>
</g>
<g>
	<line fill="#FFFFFF" x1="9.489" y1="9.51" x2="60.784" y2="60.965"/>
	<g>
		<path fill="#FFFFFF" d="M7.368,11.631c17.098,17.152,34.197,34.303,51.295,51.455c2.734,2.743,6.976-1.5,4.242-4.242
			C45.807,41.692,28.708,24.54,11.61,7.389C8.876,4.646,4.634,8.889,7.368,11.631L7.368,11.631z"/>
	</g>
</g>
</svg>
