<svg width="1212" height="835" xmlns="http://www.w3.org/2000/svg" xmlns:xlink="http://www.w3.org/1999/xlink" xml:space="preserve" overflow="hidden"><g transform="translate(-1340 -1535)"><path d="M1342.5 1537.5 2549.5 1537.5 2549.5 2367.5 1342.5 2367.5ZM1408.53 1603.53 1408.53 2301.47 2483.47 2301.47 2483.47 1603.53Z" stroke="#FFFFFF" stroke-width="4.58333" stroke-miterlimit="8" fill="#FFFFFF" fill-rule="evenodd"/><path d="M2191.27 1798.76 2309.64 1680.38 2261.8 1632.54 2453.17 1632.54 2453.17 1823.91 2405.33 1776.07 2286.96 1894.44Z" stroke="#FFFFFF" stroke-width="10.3125" stroke-miterlimit="8" fill="#FFFFFF" fill-rule="evenodd"/><path d="M2286.96 2008.99 2405.33 2127.36 2453.17 2079.51 2453.17 2270.89 2261.8 2270.89 2309.64 2223.04 2191.27 2104.67Z" stroke="#FFFFFF" stroke-width="10.3125" stroke-miterlimit="8" fill="#FFFFFF" fill-rule="evenodd"/><path d="M1699.58 2104.67 1581.21 2223.04 1629.06 2270.89 1437.68 2270.89 1437.68 2079.51 1485.53 2127.36 1603.9 2008.99Z" stroke="#FFFFFF" stroke-width="10.3125" stroke-miterlimit="8" fill="#FFFFFF" fill-rule="evenodd"/><path d="M1603.9 1894.44 1485.53 1776.07 1437.68 1823.91 1437.68 1632.54 1629.05 1632.54 1581.21 1680.39 1699.58 1798.76Z" stroke="#FFFFFF" stroke-width="10.3125" stroke-miterlimit="8" fill="#FFFFFF" fill-rule="evenodd"/></g></svg>