<svg width="892" height="734" xmlns="http://www.w3.org/2000/svg" xmlns:xlink="http://www.w3.org/1999/xlink" xml:space="preserve" overflow="hidden"><g transform="translate(-2939 -1577)"><path d="M3159.5 1796.5 3611.5 1796.5 3611.5 2107.5 3159.5 2107.5ZM3218.8 1855.8 3218.8 2048.2 3552.2 2048.2 3552.2 1855.8Z" stroke="#FFFFFF" stroke-width="4.58333" stroke-miterlimit="8" fill="#FFFFFF" fill-rule="evenodd"/><path d="M3823.29 1653.38 3738.91 1737.76 3773.02 1771.87 3636.6 1771.87 3636.6 1635.45 3670.7 1669.55 3755.08 1585.17Z" stroke="#FFFFFF" stroke-width="10.3125" stroke-miterlimit="8" fill="#FFFFFF" fill-rule="evenodd"/><path d="M3755.08 2303.43 3670.7 2219.05 3636.6 2253.15 3636.6 2116.73 3773.02 2116.73 3738.91 2150.84 3823.3 2235.22Z" stroke="#FFFFFF" stroke-width="10.3125" stroke-miterlimit="8" fill="#FFFFFF" fill-rule="evenodd"/><path d="M2946.42 2235.22 3030.8 2150.84 2996.7 2116.73 3133.12 2116.73 3133.12 2253.15 3099.01 2219.05 3014.63 2303.43Z" stroke="#FFFFFF" stroke-width="10.3125" stroke-miterlimit="8" fill="#FFFFFF" fill-rule="evenodd"/><path d="M3014.63 1585.17 3099.01 1669.55 3133.12 1635.45 3133.12 1771.87 2996.7 1771.87 3030.8 1737.76 2946.42 1653.38Z" stroke="#FFFFFF" stroke-width="10.3125" stroke-miterlimit="8" fill="#FFFFFF" fill-rule="evenodd"/></g></svg>