<svg width="856" height="618" xmlns="http://www.w3.org/2000/svg" xmlns:xlink="http://www.w3.org/1999/xlink" xml:space="preserve" overflow="hidden"><g transform="translate(-206 -1616)"><path d="M208.5 1641C208.5 1628.57 218.574 1618.5 231.001 1618.5L1037 1618.5C1049.43 1618.5 1059.5 1628.57 1059.5 1641L1059.5 1731C1059.5 1743.43 1049.43 1753.5 1037 1753.5L231.001 1753.5C218.574 1753.5 208.5 1743.43 208.5 1731Z" stroke="#FFFFFF" stroke-width="4.58333" stroke-miterlimit="8" fill="#FFFFFF" fill-rule="evenodd"/><path d="M208.5 1880C208.5 1867.57 218.574 1857.5 231.001 1857.5L1037 1857.5C1049.43 1857.5 1059.5 1867.57 1059.5 1880L1059.5 1970C1059.5 1982.43 1049.43 1992.5 1037 1992.5L231.001 1992.5C218.574 1992.5 208.5 1982.43 208.5 1970Z" stroke="#FFFFFF" stroke-width="4.58333" stroke-miterlimit="8" fill="#FFFFFF" fill-rule="evenodd"/><path d="M208.5 2119C208.5 2106.57 218.574 2096.5 231.001 2096.5L1037 2096.5C1049.43 2096.5 1059.5 2106.57 1059.5 2119L1059.5 2209C1059.5 2221.43 1049.43 2231.5 1037 2231.5L231.001 2231.5C218.574 2231.5 208.5 2221.43 208.5 2209Z" stroke="#FFFFFF" stroke-width="4.58333" stroke-miterlimit="8" fill="#FFFFFF" fill-rule="evenodd"/></g></svg>