<svg width="974" height="1029" xmlns="http://www.w3.org/2000/svg" xmlns:xlink="http://www.w3.org/1999/xlink" xml:space="preserve" overflow="hidden"><g transform="translate(-260 -128)"><path d="M751 1086 377 823.528 377 465.472 751 203Z" stroke="#FFFFFF" stroke-width="10.3125" stroke-miterlimit="8" fill="#FFFFFF" fill-rule="evenodd"/><path d="M377 824 265 795.717 265 493.284 377 465Z" stroke="#FFFFFF" stroke-width="10.3125" stroke-miterlimit="8" fill="#FFFFFF" fill-rule="evenodd"/><path d="M891.191 261.181C1051.52 381.357 1106.63 647.934 1014.3 856.598 983.685 925.774 939.069 982.684 885.312 1021.12L861.418 964.523C992.891 860.741 1037.95 630.868 962.052 451.087 938.885 396.208 905.948 350.229 866.303 317.423Z" stroke="#FFFFFF" stroke-width="10.3125" stroke-miterlimit="8" fill="#FFFFFF" fill-rule="evenodd"/><path d="M993.164 135.822C1213.89 290.649 1293.13 641.44 1170.16 919.337 1126.83 1017.25 1061.76 1097.12 982.911 1149.15L960.701 1095.81C1155.39 959.689 1228.07 644.819 1123.02 392.53 1087.58 307.416 1034.5 236.826 969.757 188.717Z" stroke="#FFFFFF" stroke-width="10.3125" stroke-miterlimit="8" fill="#FFFFFF" fill-rule="evenodd"/></g></svg>